<svg xmlns="http://www.w3.org/2000/svg" xml:space="preserve" width="200pt" height="150pt" stroke-miterlimit="10" style="fill-rule:nonzero;clip-rule:evenodd;stroke-linecap:round;stroke-linejoin:round" viewBox="0 0 200 150"><path fill="#555" d="M108.139 45.245a7.3 7.3 0 0 1 8.658-5.623l53.791 11.434a7.3 7.3 0 0 1 5.623 8.658l-2.625 12.349a7.3 7.3 0 0 1-8.658 5.623l-53.791-11.434a7.3 7.3 0 0 1-5.623-8.658z"/><path fill="#888" d="M133.989 55.746a3.6 3.6 0 0 1 4.27-2.773l29.497 6.27a3.6 3.6 0 0 1 2.773 4.27l-1.382 6.504a3.6 3.6 0 0 1-4.27 2.773l-29.497-6.27a3.6 3.6 0 0 1-2.773-4.27z"/><path fill="#555" d="M132.31 53.435a3.6 3.6 0 0 1 4.27-2.773l29.497 6.27a3.6 3.6 0 0 1 2.773 4.27l-1.383 6.505a3.6 3.6 0 0 1-4.27 2.773L133.7 64.21a3.6 3.6 0 0 1-2.773-4.27z"/><path fill="#ccc" d="M130.631 51.125a3.6 3.6 0 0 1 4.269-2.773l29.498 6.27a3.6 3.6 0 0 1 2.772 4.27l-1.382 6.505a3.6 3.6 0 0 1-4.27 2.772l-29.497-6.27a3.6 3.6 0 0 1-2.773-4.27z"/><path fill="#50cd00" d="m117.051 45.68 4.67.96c.536.11 1.11.619 1.283 1.138l1.505 4.524c.173.519.018 1.27-.345 1.68l-3.165 3.565c-.363.409-1.092.651-1.627.541l-4.671-.958c-.535-.11-1.11-.62-1.282-1.139l-1.505-4.524c-.173-.518-.018-1.27.345-1.68l3.165-3.565c.363-.409 1.091-.651 1.627-.541"/><path fill="#888" d="M141.169 55.62a1.118 1.118 0 1 0-.465 2.189l14.546 3.092a1.118 1.118 0 1 0 .465-2.189z"/><path fill="#5309e8" d="m95.677 50.953 18.053 3.837c2.071.44 4.28 2.43 4.934 4.443l5.703 17.553c.655 2.013.037 4.92-1.38 6.494l-12.35 13.716c-1.416 1.573-4.243 2.491-6.314 2.051L86.27 95.21c-2.07-.44-4.28-2.43-4.934-4.443l-5.703-17.553c-.654-2.013-.036-4.92 1.38-6.494l12.35-13.716c1.416-1.573 4.243-2.491 6.314-2.051"/><path fill="#fff" d="M92.604 58.395c-1.018-.217-2.409.233-3.105 1.007l-6.073 6.746c-.696.774-1 2.205-.679 3.195l2.804 8.629c.322.99 1.409 1.972 2.427 2.188l2.685.57-.285-.881c-.66-2.029-.113-4.6 1.315-6.185l6.072-6.747c1.428-1.585 3.927-2.395 6.014-1.952l1.009.215-.876-2.715c-.322-.99-1.409-1.966-2.427-2.183zm10.539 9.56c-1.018-.216-2.409.234-3.105 1.008l-6.073 6.746c-.696.774-1 2.2-.678 3.19l2.803 8.634c.322.99 1.409 1.971 2.427 2.188l8.876 1.886c1.018.217 2.41-.238 3.106-1.011l6.077-6.746c.697-.774 1-2.2.678-3.19l-2.808-8.635c-.321-.99-1.409-1.967-2.427-2.183z"/><path fill="#555" d="M11.317 45.917a7.3 7.3 0 0 1 5.623-8.658l53.791-11.433a7.3 7.3 0 0 1 8.659 5.622l2.624 12.349a7.3 7.3 0 0 1-5.622 8.658L22.6 63.89a7.3 7.3 0 0 1-8.658-5.623z"/><path fill="#888" d="M39.204 44.996a3.6 3.6 0 0 1 2.773-4.27l29.497-6.27a3.6 3.6 0 0 1 4.27 2.773l1.383 6.505a3.6 3.6 0 0 1-2.773 4.27l-29.497 6.27a3.6 3.6 0 0 1-4.27-2.773z"/><path fill="#555" d="M36.73 43.569a3.6 3.6 0 0 1 2.773-4.27L69 33.029a3.6 3.6 0 0 1 4.27 2.773l1.383 6.505a3.6 3.6 0 0 1-2.773 4.27l-29.497 6.27a3.6 3.6 0 0 1-4.27-2.774z"/><path fill="#ccc" d="M34.256 42.14a3.6 3.6 0 0 1 2.773-4.269l29.497-6.27a3.6 3.6 0 0 1 4.27 2.773l1.383 6.505a3.6 3.6 0 0 1-2.773 4.27l-29.497 6.27a3.6 3.6 0 0 1-4.27-2.773z"/><path fill="#36adff" d="m19.637 42.69 4.656-1.023c.534-.118 1.266.114 1.635.518l3.214 3.52c.37.405.534 1.154.369 1.676l-1.442 4.544c-.165.522-.732 1.04-1.266 1.157l-4.656 1.024c-.534.117-1.266-.115-1.635-.519l-3.215-3.52c-.369-.404-.534-1.154-.368-1.675l1.441-4.545c.165-.521.732-1.039 1.267-1.156"/><path fill="#888" d="M45.714 41.966a1.119 1.119 0 0 0 .465 2.188l14.546-3.092a1.119 1.119 0 0 0-.465-2.188z"/><path fill="#555" d="M22.73 82.229a7.3 7.3 0 0 1 8.245-6.213l54.458 7.653a7.3 7.3 0 0 1 6.213 8.246l-1.757 12.501a7.3 7.3 0 0 1-8.245 6.213l-54.458-7.653a7.3 7.3 0 0 1-6.213-8.245z"/><path fill="#888" d="M49.25 90.901a3.6 3.6 0 0 1 4.066-3.064l29.863 4.197a3.6 3.6 0 0 1 3.064 4.066l-.925 6.585a3.6 3.6 0 0 1-4.067 3.064l-29.862-4.197a3.6 3.6 0 0 1-3.064-4.065z"/><path fill="#555" d="M47.414 88.713a3.6 3.6 0 0 1 4.066-3.063l29.863 4.196a3.6 3.6 0 0 1 3.064 4.066l-.926 6.586a3.6 3.6 0 0 1-4.066 3.064l-29.863-4.197a3.6 3.6 0 0 1-3.064-4.066z"/><path fill="#ccc" d="M45.577 86.526a3.6 3.6 0 0 1 4.066-3.064l29.863 4.197a3.6 3.6 0 0 1 3.064 4.066l-.925 6.585a3.6 3.6 0 0 1-4.066 3.064l-29.863-4.197a3.6 3.6 0 0 1-3.064-4.066z"/><path fill="#ff4cda" d="m31.651 82.042 4.726.63c.542.073 1.15.541 1.359 1.047l1.817 4.408c.208.505.107 1.266-.227 1.7l-2.909 3.777c-.334.433-1.043.726-1.585.654l-4.726-.63c-.542-.073-1.15-.542-1.359-1.047l-1.817-4.408c-.208-.506-.107-1.267.227-1.7l2.909-3.777c.333-.434 1.043-.726 1.585-.654"/><path fill="#888" d="M56.404 90.275a1.119 1.119 0 0 0-.312 2.216l14.727 2.07a1.119 1.119 0 1 0 .31-2.216z"/><path fill="#555" d="M118.512 105.962a7.3 7.3 0 0 1 6.213-8.245l54.458-7.654a7.3 7.3 0 0 1 8.244 6.213l1.757 12.502a7.3 7.3 0 0 1-6.212 8.245l-54.458 7.653a7.3 7.3 0 0 1-8.245-6.213z"/><path fill="#888" d="M146.395 106.988a3.6 3.6 0 0 1 3.064-4.066l29.863-4.197a3.6 3.6 0 0 1 4.066 3.064l.925 6.585a3.6 3.6 0 0 1-3.064 4.066l-29.863 4.197a3.6 3.6 0 0 1-4.066-3.064z"/><path fill="#555" d="M144.026 105.391a3.6 3.6 0 0 1 3.064-4.066l29.863-4.197a3.6 3.6 0 0 1 4.066 3.064l.926 6.586a3.6 3.6 0 0 1-3.064 4.066l-29.863 4.196a3.6 3.6 0 0 1-4.066-3.064z"/><path fill="#ccc" d="M141.658 103.794a3.6 3.6 0 0 1 3.064-4.066l29.863-4.196a3.6 3.6 0 0 1 4.066 3.063l.925 6.586a3.6 3.6 0 0 1-3.064 4.066l-29.862 4.197a3.6 3.6 0 0 1-4.066-3.064z"/><path fill="#ffcb00" d="m127.036 103.323 4.716-.697c.541-.08 1.255.203 1.595.632l2.961 3.736c.34.428.452 1.188.251 1.696l-1.755 4.433c-.201.509-.803.986-1.344 1.066l-4.717.696c-.541.08-1.254-.203-1.594-.631l-2.962-3.736c-.339-.429-.452-1.188-.25-1.697l1.755-4.433c.201-.508.803-.985 1.344-1.065"/><path fill="#888" d="M153.098 104.415a1.119 1.119 0 1 0 .312 2.215l14.726-2.069a1.119 1.119 0 0 0-.311-2.216z"/></svg>