<svg xmlns="http://www.w3.org/2000/svg" xml:space="preserve" width="100%" height="100%" stroke-miterlimit="10" style="fill-rule:nonzero;clip-rule:evenodd;stroke-linecap:round;stroke-linejoin:round" viewBox="0 0 1024 1024"><defs><linearGradient id="a" x1="518.554" x2="508.702" y1="65.916" y2="957.217" gradientUnits="userSpaceOnUse"><stop offset="0" stop-color="#36adff"/><stop offset="1" stop-color="#0029ea"/></linearGradient></defs><path fill="url(#a)" d="M330.888 68.008h362.224c41.547 0 92.067 29.168 112.84 65.148l181.112 313.695c20.776 35.98 20.776 94.315 0 130.295L805.952 890.841c-20.773 35.98-71.293 65.147-112.84 65.147H330.888c-41.547 0-92.067-29.167-112.84-65.147L36.936 577.146c-20.773-35.98-20.773-94.315 0-130.295l181.112-313.695c20.773-35.98 71.293-65.148 112.84-65.148"/><path fill="#fff" d="M512 211.998c-165.807 0-300 134.796-300 300.388s134.193 299.613 300 299.612c165.807.001 300-134.02 300-299.612 0-165.591-134.193-300.388-300-300.388m140.819 136.326c6.455-.519 12.352 1.845 16.681 6.174 5.773 5.773 8.036 14.322 4.655 23.276l-77.586 205.668c-2.256 5.977-7.245 10.933-13.222 13.19-25.718 9.708-179.175 67.909-204.892 77.619-17.909 6.762-35.468-10.799-28.707-28.707l76.843-205.701c2.255-5.977 7.212-10.933 13.189-13.189l206.444-76.811c2.239-.845 4.443-1.346 6.595-1.519"/></svg>