<svg xmlns="http://www.w3.org/2000/svg" xml:space="preserve" width="100%" height="100%" stroke-miterlimit="10" style="fill-rule:nonzero;clip-rule:evenodd;stroke-linecap:round;stroke-linejoin:round" viewBox="0 0 1024 1024"><defs><linearGradient id="a" x1="507.879" x2="506.769" y1="75.879" y2="952.636" gradientUnits="userSpaceOnUse"><stop offset="0" stop-color="#ff4cda"/><stop offset="1" stop-color="#f10457"/></linearGradient></defs><path fill="url(#a)" d="M330.888 68.008h362.224c41.547 0 92.067 29.168 112.84 65.148l181.112 313.696c20.776 35.98 20.776 94.316 0 130.296L805.952 890.844c-20.773 35.98-71.293 65.148-112.84 65.148H330.888c-41.547 0-92.067-29.168-112.84-65.148L36.936 577.148c-20.773-35.98-20.773-94.316 0-130.296l181.112-313.696c20.773-35.98 71.293-65.148 112.84-65.148"/><path fill="#fff" d="M373.594 253.344c-35.027.384-69.406 11.976-100.063 34.594-48.715 35.941-75.076 89.41-78.906 151.281-3.369 54.411 11.153 112.694 39.031 161.343 24.138 42.123 68.393 84.075 127.188 125.719 30.698 21.744 63.455 42.025 96.218 60.344a1095 1095 0 0 0 31.719 17.063c3.373 1.742 6.366 3.293 8.969 4.593 1.593.796 2.721 1.323 3.344 1.625a25.02 25.02 0 0 0 21.812 0c.623-.302 1.751-.829 3.344-1.625 2.603-1.3 5.596-2.851 8.969-4.593a1095 1095 0 0 0 31.719-17.063c32.763-18.319 65.52-38.6 96.218-60.344 58.795-41.644 103.05-83.596 127.188-125.719 27.878-48.649 42.4-106.932 39.031-161.343-3.83-61.871-30.191-115.34-78.906-151.281-48.376-35.691-105.773-43.526-158.063-24.782-32.441 11.629-60.478 32.836-80.375 59.906-31.541-42.929-83.318-70.323-138.437-69.718"/></svg>