<svg xmlns="http://www.w3.org/2000/svg" xml:space="preserve" width="100%" height="100%" stroke-miterlimit="10" style="fill-rule:nonzero;clip-rule:evenodd;stroke-linecap:round;stroke-linejoin:round" viewBox="0 0 1024 1024"><defs><linearGradient id="a" x1="504.772" x2="495.611" y1="70.729" y2="952.748" gradientUnits="userSpaceOnUse"><stop offset="0" stop-color="#50cd00"/><stop offset="1" stop-color="#00880a"/></linearGradient></defs><path fill="url(#a)" d="M330.889 68.014h362.222c41.546 0 92.065 29.167 112.838 65.147L987.06 446.853c20.77 35.98 20.77 94.314 0 130.294L805.949 890.839c-20.773 35.98-71.292 65.147-112.838 65.147H330.889c-41.546 0-92.065-29.167-112.838-65.147L36.94 577.147c-20.773-35.98-20.773-94.314 0-130.294L218.05 133.161c20.773-35.98 71.292-65.147 112.838-65.147"/><path fill="#fff" d="M379.75 228.125c-53.916 0-97.625 43.709-97.625 97.625s43.709 97.625 97.625 97.625 97.625-43.709 97.625-97.625-43.709-97.625-97.625-97.625m229.5 128.094c-1.571 0-3.155.173-4.719.469-.565.106-1.124.292-1.687.437a27.4 27.4 0 0 0-4.969 1.781 32 32 0 0 0-2.687 1.438c-.567.336-1.128.653-1.688 1.031a38 38 0 0 0-3.594 2.781c-.259.225-.523.391-.781.625-.202.184-.393.436-.594.625a48 48 0 0 0-3.969 4.282 55 55 0 0 0-1.687 2.156 63 63 0 0 0-3.594 5.375c-.201.335-.426.594-.625.937L418.875 655l-66.563-115.281c-4.045-7.008-8.753-12.095-13.718-15.719-.012-.009-.02-.023-.032-.031-.325-.245-.64-.551-.968-.781-.431-.303-.878-.508-1.313-.782-.076-.048-.142-.109-.219-.156-.75-.453-1.489-.964-2.25-1.344-.007-.004-.023.004-.031 0-.032-.017-.061-.046-.093-.062a28.4 28.4 0 0 0-5.969-2.25c-.022-.006-.041-.026-.063-.032-.02-.005-.042.006-.062 0-1.98-.493-3.97-.773-5.969-.781a25.5 25.5 0 0 0-4.031.344c-9.642 1.6-19.02 8.799-26.406 21.594l-90.532 156.75c-16.689 28.907-3.16 52.343 30.219 52.343h561.813c33.769.001 47.447-23.692 30.562-52.937l-183.5-317.813c-1.395-2.407-2.881-4.553-4.406-6.562a56 56 0 0 0-1.219-1.562c-1.556-1.903-3.156-3.683-4.813-5.188-.203-.185-.418-.321-.624-.5-1.055-.921-2.133-1.801-3.219-2.562a33.4 33.4 0 0 0-3.907-2.376c-.012-.006-.018-.024-.031-.031-.133-.068-.272-.09-.406-.156a28.7 28.7 0 0 0-4.844-1.844 27 27 0 0 0-1.687-.406c-1.781-.384-3.552-.656-5.344-.656"/></svg>